# AST/ASF file generated using VICON BodyLanguage
# -----------------------------------------------
:version 1.10
:name VICON
:units
  mass 1.0
  length 0.45
  angle deg
:documentation
   .ast/.asf automatically generated from VICON data using
   VICON BodyBuilder and BodyLanguage model FoxedUp or BRILLIANT.MOD
:root
   order TX TY TZ RX RY RZ
   axis XYZ
   position 0 0 0  
   orientation 0 0 0 
:bonedata
  begin
     id 1 
     name lhipjoint
     direction 0.61886 -0.69539 0.365302 
     length 2.20474 
     axis 0 0 0  XYZ
  end
  begin
     id 2 
     name lfemur
     direction 0.34202 -0.939693 0  
     length 6.65149  
     axis 0 0 20  XYZ
    dof rx ry rz
    limits (-160.0 20.0)
           (-70.0 70.0)
           (-60.0 70.0)
  end
  begin
     id 3 
     name ltibia
     direction 0.34202 -0.939693 0   
     length 6.35814   
     axis 0 0 20   XYZ
    dof rx
    limits (-10.0 170.0)
  end
  begin
     id 4 
     name lfoot
     direction 0.101224 -0.278109 0.955201   
     length 2.18766   
     axis -90 7.62852e-016 20   XYZ
    dof rx rz
    limits (-45.0 90.0)
           (-70.0 20.0)
  end
  begin
     id 5 
     name ltoes
     direction 1.53524e-011 -4.21877e-011 1   
     length 1.09206   
     axis -90 7.62852e-016 20   XYZ
    dof rx
    limits (-90.0 20.0)
  end
  begin
     id 6 
     name rhipjoint
     direction -0.600207 -0.708087 0.371972   
     length 2.1652  
     axis 0 0 0  XYZ 
  end
  begin
     id 7 
     name rfemur
     direction -0.34202 -0.939693 0   
     length 6.54691   
     axis 0 0 -20   XYZ
    dof rx ry rz
    limits (-160.0 20.0)
           (-70.0 70.0)
           (-70.0 60.0)
  end
  begin
     id 8 
     name rtibia
     direction -0.34202 -0.939693 0   
     length 6.37474   
     axis 0 0 -20   XYZ
    dof rx
    limits (-10.0 170.0)
 end
 begin
     id 9 
     name rfoot
     direction -0.111266 -0.3057 0.945604   
     length 2.00903  
     axis -90 -7.62852e-016 -20   XYZ
    dof rx rz
    limits (-45.0 90.0)
           (-20.0 70.0)
  end
  begin
     id 10 
     name rtoes
     direction -1.5362e-011 -4.21913e-011 1   
     length 1.00221   
     axis -90 -7.62852e-016 -20   XYZ
    dof rx
    limits (-90.0 20.0)
  end
  begin
     id 11 
     name lowerback
     direction -0.0224561 0.999731 -0.00577314   
     length 2.10409   
     axis 0 0 0   XYZ
    dof rx ry rz
    limits (-20.0 45.0)
           (-30.0 30.0)
           (-30.0 30.0)
  end
  begin
     id 12 
     name upperback
     direction 0.0213126 0.999185 -0.0342817   
     length 2.09783   
     axis 0 0 0   XYZ
    dof rx ry rz
    limits (-20.0 45.0)
           (-30.0 30.0)
           (-30.0 30.0)
  end
  begin
     id 13 
     name thorax
     direction 0.0312356 0.999036 -0.0308451   
     length 2.09788   
     axis 0 0 0   XYZ
    dof rx ry rz
    limits (-20.0 45.0)
           (-30.0 30.0)
           (-30.0 30.0)
  end
  begin
     id 14 
     name lowerneck
     direction -0.0114419 0.996481 0.0830329   
     length 1.38575   
     axis 0 0 0   XYZ
    dof rx ry rz
    limits (-20.0 45.0)
           (-30.0 30.0)
           (-30.0 30.0)
  end
  begin
     id 15 
     name upperneck
     direction -0.0075675 0.996187 -0.0869092   
     length 1.39401   
     axis 0 0 0   XYZ
    dof rx ry rz
    limits (-20.0 45.0)
           (-30.0 30.0)
           (-30.0 30.0)
  end
  begin
     id 16
     name head
     direction -0.00222073 0.999264 -0.0382974  
     length 1.3964  
     axis 0 0 0   XYZ
    dof rx ry rz
    limits (-20.0 45.0)
           (-30.0 30.0)
           (-30.0 30.0)
  end
  begin
     id 17 
     name lclavicle
     direction 0.965962 0.222138 0.132556  
     length 2.81514  
     axis 0 0 0   XYZ
    dof ry rz
    limits (-20.0 10.0)
           (0.0 20.0)
  end
  begin
     id 18 
     name lhumerus
     direction 1 -4.48972e-011 7.03471e-018   
     length 4.47366   
     axis 180 -30 -90   XYZ
    dof rx ry rz
    limits (-60.0 90.0)
           (-90.0 90.0)
           (-90.0 90.0)
  end
  begin
     id 19
     name lradius
     direction 1 -4.48951e-011 -6.22192e-028   
     length 3.19948   
     axis 180 -30 -90   XYZ
    dof rx
    limits (-10.0 170.0)
  end
  begin
     id 20
     name lwrist
     direction 1 -4.48967e-011 -1.24264e-027   
     length 1.59974   
     axis 1.40095e-015 90 90   XYZ
    dof ry
    limits (-180.0 0.0)
 end
  begin
     id 21 
     name lhand
     direction 1 -4.4897e-011 -2.48528e-027   
     length 0.492667   
     axis 1.58582e-015 90 90   XYZ
    dof rx rz
    limits (-90.0 90.0)
           (-45.0 45.0)
  end
  begin
     id 22 
     name lfingers
     direction 1 -4.48996e-011 -4.97056e-027   
     length 0.397201   
     axis 3.17164e-015 90 90   XYZ
    dof rx
    limits (0.0 90.0)
  end
  begin
     id 23
     name lthumb
     direction 0.707107 -6.34981e-011 0.707107   
     length 0.570303   
     axis -90 45 2.85299e-015   XYZ
    dof rx rz
    limits (-45.0 45.0)
           (-45.0 45.0)
  end
  begin
     id 24 
     name rclavicle
     direction -0.961164 0.229034 0.153972   
     length 3.09348  
     axis 0 0 0   XYZ 
    dof ry rz
    limits (-10.0 20.0)
           (-20.0 0.0)
  end
  begin
     id 25 
     name rhumerus
     direction -1 -4.48971e-011 -9.06263e-028  
     length 4.3269   
     axis 180 30 90   XYZ
    dof rx ry rz
    limits (-90.0 60.0)
           (-90.0 90.0)
           (-90.0 90.0)
  end
  begin
     id 26 
     name rradius
     direction -1 -4.48953e-011 1.44659e-027   
     length 3.1896   
     axis 180 30 90   XYZ
    dof rx
    limits (-10.0 170.0)
  end
  begin
     id 27 
     name rwrist
     direction -1 -4.48988e-011 -1.24264e-027   
     length 1.5948   
     axis 1.40095e-015 -90 -90   XYZ
    dof ry
    limits (-180.0 0.0)
  end
  begin
     id 28
     name rhand
     direction -1 -4.49033e-011 -2.48528e-027   
     length 0.464496   
     axis 1.58582e-015 -90 -90   XYZ
    dof rx rz
    limits (-90.0 90.0)
           (-45.0 45.0)
  end
  begin
     id 29
     name rfingers
     direction -1 -4.48905e-011 -4.97056e-027   
     length 0.374489   
     axis 3.17164e-015 -90 -90   XYZ
    dof rx
    limits (0.0 90.0)
  end
  begin
     id 30
     name rthumb
     direction -0.707107 -6.34909e-011 0.707107   
     length 0.537693   
     axis -90 -45 -2.85299e-015   XYZ
    dof rx rz
    limits (-45.0 45.0)
           (-45.0 45.0)
  end
:hierarchy
  begin
    root lhipjoint rhipjoint lowerback
    lhipjoint lfemur
    lfemur ltibia
    ltibia lfoot
    lfoot ltoes
    rhipjoint rfemur
    rfemur rtibia
    rtibia rfoot
    rfoot rtoes
    lowerback upperback
    upperback thorax
    thorax lowerneck lclavicle rclavicle
    lowerneck upperneck
    upperneck head
    lclavicle lhumerus
    lhumerus lradius
    lradius lwrist
    lwrist lhand lthumb
    lhand lfingers
    rclavicle rhumerus
    rhumerus rradius
    rradius rwrist
    rwrist rhand rthumb
    rhand rfingers
  end

#!OML:ASF G:\acrobat\cartwheel_test 2\Patient 1\Session 2\acrobat4.ASF
:FULLY-SPECIFIED
:DEGREES
1378
root 3.32314 14.7849 18.7586 17.9187 212.548 -8.24817
lowerback 3.45886 -3.38163 -5.51846
upperback 1.8827 -4.84134 5.06156
thorax 0.918592 -2.60907 8.50881
lowerneck -5.42673 -8.90887 -4.08109
upperneck 7.71685 -12.1622 4.82352
head 4.12663 -5.96519 1.63028
rclavicle -7.15625e-014 2.06736e-014
rhumerus -32.5614 10.2885 -69.3704
rradius 108.436
rwrist -7.61898
rhand -26.2635 334.671
rfingers 7.12502
rthumb 0.291225 -415.309
lclavicle -7.15625e-014 2.06736e-014
lhumerus -35.9955 -24.4004 85.3042
lradius 129.215
lwrist 5.7027
lhand -44.4102 -16.3954
lfingers 7.12502
lthumb -17.216 -347.138
rfemur -51.2196 -20.6338 19.1077
rtibia 50.6463
rfoot -11.106 -33.8475
rtoes 11.5596
lfemur -360.831 3.41303 -384.916
ltibia 27.8053
lfoot 153.424 -164.709
ltoes -36.5641
1379
root 3.37172 14.7908 18.9749 17.9179 213.39 -8.05485
lowerback 3.34287 -3.14925 -5.92759
upperback 2.12271 -4.53486 4.91507
thorax 1.19724 -2.47616 8.57088
lowerneck -5.60434 -9.08363 -4.26305
upperneck 7.4933 -12.4073 5.39461
head 4.15847 -6.0633 1.82899
rclavicle -2.70347e-014 -1.59028e-014
rhumerus -32.5839 11.1817 -70.8742
rradius 109.173
rwrist -6.37106
rhand -26.5639 335.051
rfingers 7.12502
rthumb 0.00109885 -414.929
lclavicle -2.70347e-014 -1.59028e-014
lhumerus -36.7185 -23.9584 85.7235
lradius 129.4
lwrist 5.65093
lhand -44.3343 -16.0641
lfingers 7.12502
lthumb -17.143 -346.8
rfemur -51.378 -20.4688 18.6805
rtibia 49.8165
rfoot -9.29267 -33.5239
rtoes 11.0541
lfemur -361.788 2.64519 -384.911
ltibia 27.9015
lfoot 152.141 -165.111
ltoes -32.6122
1380
root 3.41159 14.8274 19.182 17.7052 213.929 -7.78446
lowerback 3.5159 -2.80644 -6.11224
upperback 2.23929 -4.07271 4.58503
thorax 1.12042 -2.23665 8.33005
lowerneck -5.53432 -9.29044 -4.22197
upperneck 7.38487 -12.7325 5.86989
head 4.16328 -6.20643 1.962
rclavicle -1.43125e-014 9.54166e-015
rhumerus -33.2081 11.9765 -72.5424
rradius 109.875
rwrist -5.37806
rhand -26.8637 335.856
rfingers 7.12502
rthumb -0.288421 -414.124
lclavicle -1.43125e-014 9.54166e-015
lhumerus -37.7087 -23.5265 86.1703
lradius 129.544
lwrist 5.8459
lhand -44.0703 -16.308
lfingers 7.12502
lthumb -16.8889 -347.022
rfemur -51.1313 -19.9647 18.0283
rtibia 48.888
rfoot -7.2272 -32.8523
rtoes 9.79496
lfemur -362.606 1.58329 -385.06
ltibia 27.9816
lfoot 150.901 -165.061
ltoes -24.7139
1381
root 3.44758 14.8408 19.3789 17.6404 214.334 -7.73826
lowerback 3.52598 -2.49775 -6.5022
upperback 2.33986 -3.65351 4.23741
thorax 1.14208 -2.02476 8.17829
lowerneck -5.32591 -9.48931 -4.25969
upperneck 7.19216 -13.0334 6.29564
head 4.11362 -6.34648 2.10199
rclavicle -4.21423e-014 -6.36111e-015
rhumerus -33.9089 12.8144 -74.0805
rradius 110.437
rwrist -4.6811
rhand -27.1516 336.872
rfingers 7.12502
rthumb -0.566545 -413.107
lclavicle -4.21423e-014 -6.36111e-015
lhumerus -38.8308 -22.9317 86.7598
lradius 129.574
lwrist 5.98371
lhand -43.8372 -17.4142
lfingers 7.12502
lthumb -16.6644 -348.11
rfemur -50.7983 -19.2333 16.926
rtibia 47.9906
rfoot -5.86322 -31.9945
rtoes 8.78661
lfemur -363.304 1.10782 -385.495
ltibia 27.9868
lfoot 150.355 -163.988
ltoes -23.6025
1382
root 3.47697 14.8541 19.5713 17.677 214.628 -7.61288
lowerback 3.40356 -2.31016 -6.85956
upperback 2.38999 -3.39462 4.05307
thorax 1.22479 -1.89889 8.17827
lowerneck -5.10331 -9.56434 -4.63072
upperneck 7.23156 -13.1644 6.94294
head 3.75701 -6.383 2.1359
rclavicle 6.20208e-014 -1.90833e-014
rhumerus -34.4732 13.9285 -75.3855
rradius 110.957
rwrist -4.12995
rhand -27.2845 337.808
rfingers 7.12502
rthumb -0.694879 -412.171
lclavicle 6.20208e-014 -1.90833e-014
lhumerus -40.2293 -21.7966 87.483
lradius 129.697
lwrist 5.83933
lhand -43.7257 -17.9066
lfingers 7.12502
lthumb -16.5572 -348.593
rfemur -50.5016 -18.2719 15.7824
rtibia 46.9498
rfoot -4.71131 -31.2712
rtoes 8.33091
lfemur -364.203 0.953878 -385.952
ltibia 28.1012
lfoot 150.189 -162.575
ltoes -23.7351
